<svg width="178" height="38" viewBox="0 0 178 38" fill="none" xmlns="http://www.w3.org/2000/svg">
<path d="M153.21 29.9533L153 20.5522L153 15.772V9H170.647V12.3462H178V38H153V34.0962H171.137V29.9533H165.745H153.21ZM157.202 20.5522H169.807V14.0192H157.202V20.5522Z" fill="white"/>
<path d="M126 13.2857L126 9H143.143V13.2857H147.429V30.4286H138.857V13.2857H134.571V30.4286H126V13.2857Z" fill="white"/>
<path d="M95 30V25.7143H103.571V12.8571H99.2857V8.57143H112.143V25.7143H120.714V30H95ZM103.571 4.28571V0H112.143V4.28571H103.571Z" fill="white"/>
<path d="M74.5 30V4.28571H64V0H80H99V4.28571H83.0714V12.8571V17.1429V30H74.5Z" fill="white"/>
<path d="M39 29.5V25H34L34.5 7L59.5 7.5L59.5 11.5H64V29.9286L39 29.5ZM42.5714 25.6429H55.4286V12.7857H42.5714V25.6429Z" fill="white"/>
<path d="M30 21.4286L25.7143 21.4286L25.7143 25.7143L21.4286 25.7143L21.4286 30L8.57143 30L8.57143 25.7143L4.28571 25.7143L4.28571 21.4286L-3.74669e-07 21.4286L-1.31134e-06 0L4.28571 -1.87335e-07L4.28571 17.1429L8.57143 17.1429L8.57143 21.4286L21.4286 21.4286L21.4286 17.1429L25.7143 17.1429L25.7143 8.57143L25.7143 -1.12401e-06L30 -1.31134e-06L30 21.4286Z" fill="white"/>
</svg>
